<svg xmlns="http://www.w3.org/2000/svg" width="30" height="28">
	<style>
		:root {
			--background-color: white;
			--text-color: #3e8ed0;
		}

		@media (prefers-color-scheme: dark) {
			:root {
				--background-color: rgb(64, 64, 64);
				--text-color: #3e8ed0;
			}
		}

		rect.bg {
			fill: var(--background-color)
		}
		path.text {
			fill: var(--text-color)
		}
	</style>
	<rect class="bg" width="6" height="7" x="0" y="0" />
	<rect class="bg" width="6" height="7" x="12" y="0" />
	<rect class="bg" width="6" height="7" x="24" y="0" />
	<rect class="bg" width="30" height="22" x="0" y="6" />

	<path class="text" d="M4 8 L10 8 L10 10 L6 10 L6 14 L10 14 L10 16 L4 16 L4 8 Z" />
	<path class="text" d="M11 8 L19 8 L19 16 L17 16 L17 10 L16 10 L16 12 L14 12 L14 10 L13 10 L13 16 L11 16 L11 8 Z" />
	<path class="text" d="M20 8 L26 8 L26 10 L22 10 L22 11 L26 11 L26 16 L20 16 L20 14 L24 14 L24 13 L20 13 L20 8 Z" />

	<path class="text" d="M8 18 L14 18 L14 20 L12 20 L10 20 L10 24 L14 24 L14 26 L8 26 L8 18 Z" />
	<path class="text" d="" />
    <path class="text" d="M16 18 L22 18 L22 20 L20 20 L18 20 L18 24 L22 24 L22 26 L16 26 L16 18 Z"/>
</svg>
